<svg width="1440" height="1024" xmlns="http://www.w3.org/2000/svg" fill="none">
 <defs>
  <linearGradient id="b" x1="0" x2="1.04606" y1="1" y2="0.1073">
   <stop stop-color="#D83333"/>
   <stop offset="1" stop-color="#F041FF"/>
  </linearGradient>
  <linearGradient id="svg_4" x1="0.38001" x2="1.24171" y1="1.22466" y2="0.49937">
   <stop stop-color="#0000ff" stop-opacity="0.99609"/>
   <stop offset="1" stop-color="#cc0000" stop-opacity="0.99609"/>
  </linearGradient>
 </defs>
 <g>
  <title>Layer 1</title>
  <rect id="svg_3" height="1169.99998" width="1556.00009" y="-55.00001" x="-76.00004" opacity="NaN" stroke="#000" fill="#000000"/>
  <path fill="url(#svg_4)" fill-rule="evenodd" d="m-217.58,475.75c91.82,-72.02 225.52,-29.38 341.2,-44.74c116.38,-15.45 248.71,-115.87 343.15,-46.11c102.9,76.02 44.74,246.76 90.31,366.31c29.83,78.24 90.48,136.14 129.48,210.23c57.92,109.99 169.67,208.23 155.9,331.77c-13.52,121.26 -103.42,264.33 -224.23,281.37c-141.96,20.03 -232.72,-220.96 -374.06,-196.99c-151.7,25.73 -172.68,330.24 -325.85,315.72c-128.6,-12.2 -110.9,-230.73 -128.15,-358.76c-12.16,-90.14 65.87,-176.25 44.1,-264.57c-26.42,-107.2 -167.12,-163.46 -176.72,-273.45c-10.15,-116.29 33.01,-248.75 124.87,-320.79l0,0.01z" clip-rule="evenodd" opacity="0.154" id="svg_1"/>
  <path fill="url(#b)" fill-rule="evenodd" d="m1103.43,115.43c146.42,-19.45 275.33,-155.84 413.5,-103.59c188.09,71.13 409,212.64 407.06,413.88c-1.94,201.25 -259.28,278.6 -414.96,405.96c-130,106.35 -240.24,294.39 -405.6,265.3c-163.7,-28.8 -161.93,-274.12 -284.34,-386.66c-134.95,-124.06 -436,-101.46 -445.82,-284.6c-9.68,-180.38 247.41,-246.3 413.54,-316.9c101.01,-42.93 207.83,21.06 316.62,6.61z" clip-rule="evenodd" opacity="0.154" id="svg_2"/>
 </g>
</svg>